<svg xmlns="http://www.w3.org/2000/svg" xmlns:xlink="http://www.w3.org/1999/xlink" width="500" zoomAndPan="magnify" viewBox="0 0 375 374.999991" height="500" preserveAspectRatio="xMidYMid meet" version="1.0"><defs><g/></defs><g fill="#ff00ff" fill-opacity="1"><g transform="translate(1.93233, 169.945683)"><g><path d="M 24.28125 0 L 13.46875 0 C 9.78125 0 7.039062 -0.738281 5.25 -2.21875 C 3.457031 -3.695312 2.5625 -5.972656 2.5625 -9.046875 L 2.5625 -22.828125 C 2.5625 -25.890625 3.457031 -28.164062 5.25 -29.65625 C 7.039062 -31.15625 9.78125 -31.90625 13.46875 -31.90625 L 24.28125 -31.90625 C 24.84375 -31.90625 25.25 -31.78125 25.5 -31.53125 C 25.75 -31.28125 25.875 -30.875 25.875 -30.3125 L 25.875 -24.953125 C 25.875 -24.390625 25.75 -23.984375 25.5 -23.734375 C 25.25 -23.484375 24.84375 -23.359375 24.28125 -23.359375 L 15.375 -23.359375 C 14.457031 -23.359375 13.773438 -23.171875 13.328125 -22.796875 C 12.890625 -22.429688 12.671875 -21.878906 12.671875 -21.140625 L 12.671875 -10.59375 C 12.671875 -9.851562 12.890625 -9.3125 13.328125 -8.96875 C 13.773438 -8.632812 14.457031 -8.46875 15.375 -8.46875 L 24.28125 -8.46875 C 24.84375 -8.46875 25.25 -8.335938 25.5 -8.078125 C 25.75 -7.828125 25.875 -7.425781 25.875 -6.875 L 25.875 -1.59375 C 25.875 -1.03125 25.75 -0.625 25.5 -0.375 C 25.25 -0.125 24.84375 0 24.28125 0 Z M 24.28125 0 "/></g></g></g><g fill="#ff00ff" fill-opacity="1"><g transform="translate(29.758168, 169.945683)"><g><path d="M 14.625 -22.59375 L 12.546875 -15.859375 L 19.5 -15.859375 L 17.421875 -22.59375 C 17.296875 -22.863281 17.164062 -23.054688 17.03125 -23.171875 C 16.90625 -23.296875 16.753906 -23.359375 16.578125 -23.359375 L 15.46875 -23.359375 C 15.289062 -23.359375 15.132812 -23.296875 15 -23.171875 C 14.863281 -23.054688 14.738281 -22.863281 14.625 -22.59375 Z M 12.09375 -1.59375 C 12.09375 -1.03125 11.96875 -0.625 11.71875 -0.375 C 11.46875 -0.125 11.0625 0 10.5 0 L 3.984375 0 C 3.421875 0 3.015625 -0.125 2.765625 -0.375 C 2.515625 -0.625 2.390625 -1.03125 2.390625 -1.59375 L 2.390625 -13.296875 C 2.390625 -14.179688 2.53125 -15.195312 2.8125 -16.34375 C 3.09375 -17.5 3.53125 -18.847656 4.125 -20.390625 L 7.96875 -30.4375 C 8.144531 -30.945312 8.414062 -31.316406 8.78125 -31.546875 C 9.15625 -31.785156 9.640625 -31.90625 10.234375 -31.90625 L 22.15625 -31.90625 C 22.71875 -31.90625 23.179688 -31.785156 23.546875 -31.546875 C 23.921875 -31.316406 24.195312 -30.945312 24.375 -30.4375 L 28.234375 -20.390625 C 28.816406 -18.847656 29.25 -17.5 29.53125 -16.34375 C 29.8125 -15.195312 29.953125 -14.179688 29.953125 -13.296875 L 29.953125 -1.59375 C 29.953125 -1.03125 29.828125 -0.625 29.578125 -0.375 C 29.328125 -0.125 28.921875 0 28.359375 0 L 21.671875 0 C 21.078125 0 20.640625 -0.125 20.359375 -0.375 C 20.078125 -0.625 19.9375 -1.03125 19.9375 -1.59375 L 19.9375 -7.796875 L 12.09375 -7.796875 Z M 12.09375 -1.59375 "/></g></g></g><g fill="#ff00ff" fill-opacity="1"><g transform="translate(62.103496, 169.945683)"><g><path d="M 13.078125 -23.921875 L 13.078125 -18.25 L 16.390625 -18.25 C 17.160156 -18.25 17.675781 -18.445312 17.9375 -18.84375 C 18.207031 -19.25 18.34375 -19.75 18.34375 -20.34375 L 18.34375 -21.84375 C 18.34375 -22.4375 18.207031 -22.929688 17.9375 -23.328125 C 17.675781 -23.722656 17.160156 -23.921875 16.390625 -23.921875 Z M 11.484375 0 L 4.65625 0 C 4.09375 0 3.6875 -0.125 3.4375 -0.375 C 3.1875 -0.625 3.0625 -1.03125 3.0625 -1.59375 L 3.0625 -30.3125 C 3.0625 -30.875 3.1875 -31.28125 3.4375 -31.53125 C 3.6875 -31.78125 4.09375 -31.90625 4.65625 -31.90625 L 19.40625 -31.90625 C 22.71875 -31.90625 25 -31.21875 26.25 -29.84375 C 27.507812 -28.46875 28.140625 -26.6875 28.140625 -24.5 L 28.140625 -22.46875 C 28.140625 -21.226562 27.953125 -20.171875 27.578125 -19.296875 C 27.210938 -18.421875 26.570312 -17.796875 25.65625 -17.421875 C 27.25 -17.242188 28.539062 -16.59375 29.53125 -15.46875 C 30.519531 -14.34375 31.015625 -12.847656 31.015625 -10.984375 L 31.015625 -1.59375 C 31.015625 -1.03125 30.890625 -0.625 30.640625 -0.375 C 30.390625 -0.125 29.984375 0 29.421875 0 L 22.5625 0 C 22 0 21.585938 -0.125 21.328125 -0.375 C 21.078125 -0.625 20.953125 -1.03125 20.953125 -1.59375 L 20.953125 -8.375 C 20.953125 -9.019531 20.828125 -9.5 20.578125 -9.8125 C 20.328125 -10.125 19.894531 -10.28125 19.28125 -10.28125 L 13.078125 -10.28125 L 13.078125 -1.59375 C 13.078125 -1.03125 12.945312 -0.625 12.6875 -0.375 C 12.4375 -0.125 12.035156 0 11.484375 0 Z M 11.484375 0 "/></g></g></g><g fill="#ff00ff" fill-opacity="1"><g transform="translate(95.024827, 169.945683)"><g><path d="M 13.078125 -23.921875 L 13.078125 -18.25 L 16.390625 -18.25 C 17.160156 -18.25 17.675781 -18.445312 17.9375 -18.84375 C 18.207031 -19.25 18.34375 -19.75 18.34375 -20.34375 L 18.34375 -21.84375 C 18.34375 -22.4375 18.207031 -22.929688 17.9375 -23.328125 C 17.675781 -23.722656 17.160156 -23.921875 16.390625 -23.921875 Z M 11.484375 0 L 4.65625 0 C 4.09375 0 3.6875 -0.125 3.4375 -0.375 C 3.1875 -0.625 3.0625 -1.03125 3.0625 -1.59375 L 3.0625 -30.3125 C 3.0625 -30.875 3.1875 -31.28125 3.4375 -31.53125 C 3.6875 -31.78125 4.09375 -31.90625 4.65625 -31.90625 L 19.40625 -31.90625 C 22.71875 -31.90625 25 -31.21875 26.25 -29.84375 C 27.507812 -28.46875 28.140625 -26.6875 28.140625 -24.5 L 28.140625 -22.46875 C 28.140625 -21.226562 27.953125 -20.171875 27.578125 -19.296875 C 27.210938 -18.421875 26.570312 -17.796875 25.65625 -17.421875 C 27.25 -17.242188 28.539062 -16.59375 29.53125 -15.46875 C 30.519531 -14.34375 31.015625 -12.847656 31.015625 -10.984375 L 31.015625 -1.59375 C 31.015625 -1.03125 30.890625 -0.625 30.640625 -0.375 C 30.390625 -0.125 29.984375 0 29.421875 0 L 22.5625 0 C 22 0 21.585938 -0.125 21.328125 -0.375 C 21.078125 -0.625 20.953125 -1.03125 20.953125 -1.59375 L 20.953125 -8.375 C 20.953125 -9.019531 20.828125 -9.5 20.578125 -9.8125 C 20.328125 -10.125 19.894531 -10.28125 19.28125 -10.28125 L 13.078125 -10.28125 L 13.078125 -1.59375 C 13.078125 -1.03125 12.945312 -0.625 12.6875 -0.375 C 12.4375 -0.125 12.035156 0 11.484375 0 Z M 11.484375 0 "/></g></g></g><g fill="#ff00ff" fill-opacity="1"><g transform="translate(127.946158, 169.945683)"><g><path d="M 25.21875 0 L 4.65625 0 C 4.09375 0 3.6875 -0.125 3.4375 -0.375 C 3.1875 -0.625 3.0625 -1.03125 3.0625 -1.59375 L 3.0625 -30.3125 C 3.0625 -30.875 3.1875 -31.28125 3.4375 -31.53125 C 3.6875 -31.78125 4.09375 -31.90625 4.65625 -31.90625 L 25.21875 -31.90625 C 25.78125 -31.90625 26.1875 -31.78125 26.4375 -31.53125 C 26.6875 -31.28125 26.8125 -30.875 26.8125 -30.3125 L 26.8125 -25.125 C 26.8125 -24.5625 26.6875 -24.15625 26.4375 -23.90625 C 26.1875 -23.65625 25.78125 -23.53125 25.21875 -23.53125 L 12.984375 -23.53125 L 12.984375 -20.125 L 21.625 -20.125 C 22.1875 -20.125 22.59375 -19.992188 22.84375 -19.734375 C 23.09375 -19.484375 23.21875 -19.078125 23.21875 -18.515625 L 23.21875 -13.78125 C 23.21875 -13.21875 23.09375 -12.8125 22.84375 -12.5625 C 22.59375 -12.3125 22.1875 -12.1875 21.625 -12.1875 L 12.984375 -12.1875 L 12.984375 -8.375 L 25.21875 -8.375 C 25.78125 -8.375 26.1875 -8.25 26.4375 -8 C 26.6875 -7.75 26.8125 -7.34375 26.8125 -6.78125 L 26.8125 -1.59375 C 26.8125 -1.03125 26.6875 -0.625 26.4375 -0.375 C 26.1875 -0.125 25.78125 0 25.21875 0 Z M 25.21875 0 "/></g></g></g><g fill="#ff00ff" fill-opacity="1"><g transform="translate(156.924027, 169.945683)"><g><path d="M 27.421875 0 L 13.46875 0 C 9.78125 0 7.039062 -0.738281 5.25 -2.21875 C 3.457031 -3.695312 2.5625 -5.972656 2.5625 -9.046875 L 2.5625 -22.859375 C 2.5625 -25.929688 3.457031 -28.207031 5.25 -29.6875 C 7.039062 -31.164062 9.78125 -31.90625 13.46875 -31.90625 L 24.546875 -31.90625 C 25.109375 -31.90625 25.515625 -31.78125 25.765625 -31.53125 C 26.015625 -31.28125 26.140625 -30.875 26.140625 -30.3125 L 26.140625 -24.953125 C 26.140625 -24.390625 26.015625 -23.984375 25.765625 -23.734375 C 25.515625 -23.484375 25.109375 -23.359375 24.546875 -23.359375 L 15.328125 -23.359375 C 14.410156 -23.359375 13.726562 -23.171875 13.28125 -22.796875 C 12.84375 -22.429688 12.625 -21.878906 12.625 -21.140625 L 12.625 -10.546875 C 12.625 -9.804688 12.789062 -9.257812 13.125 -8.90625 C 13.46875 -8.550781 13.984375 -8.375 14.671875 -8.375 L 18.96875 -8.375 L 18.96875 -15.28125 C 18.96875 -15.84375 19.09375 -16.25 19.34375 -16.5 C 19.59375 -16.757812 20 -16.890625 20.5625 -16.890625 L 27.421875 -16.890625 C 27.984375 -16.890625 28.390625 -16.757812 28.640625 -16.5 C 28.898438 -16.25 29.03125 -15.84375 29.03125 -15.28125 L 29.03125 -1.59375 C 29.03125 -1.03125 28.898438 -0.625 28.640625 -0.375 C 28.390625 -0.125 27.984375 0 27.421875 0 Z M 27.421875 0 "/></g></g></g><g fill="#ff00ff" fill-opacity="1"><g transform="translate(188.294557, 169.945683)"><g><path d="M 14.625 -22.59375 L 12.546875 -15.859375 L 19.5 -15.859375 L 17.421875 -22.59375 C 17.296875 -22.863281 17.164062 -23.054688 17.03125 -23.171875 C 16.90625 -23.296875 16.753906 -23.359375 16.578125 -23.359375 L 15.46875 -23.359375 C 15.289062 -23.359375 15.132812 -23.296875 15 -23.171875 C 14.863281 -23.054688 14.738281 -22.863281 14.625 -22.59375 Z M 12.09375 -1.59375 C 12.09375 -1.03125 11.96875 -0.625 11.71875 -0.375 C 11.46875 -0.125 11.0625 0 10.5 0 L 3.984375 0 C 3.421875 0 3.015625 -0.125 2.765625 -0.375 C 2.515625 -0.625 2.390625 -1.03125 2.390625 -1.59375 L 2.390625 -13.296875 C 2.390625 -14.179688 2.53125 -15.195312 2.8125 -16.34375 C 3.09375 -17.5 3.53125 -18.847656 4.125 -20.390625 L 7.96875 -30.4375 C 8.144531 -30.945312 8.414062 -31.316406 8.78125 -31.546875 C 9.15625 -31.785156 9.640625 -31.90625 10.234375 -31.90625 L 22.15625 -31.90625 C 22.71875 -31.90625 23.179688 -31.785156 23.546875 -31.546875 C 23.921875 -31.316406 24.195312 -30.945312 24.375 -30.4375 L 28.234375 -20.390625 C 28.816406 -18.847656 29.25 -17.5 29.53125 -16.34375 C 29.8125 -15.195312 29.953125 -14.179688 29.953125 -13.296875 L 29.953125 -1.59375 C 29.953125 -1.03125 29.828125 -0.625 29.578125 -0.375 C 29.328125 -0.125 28.921875 0 28.359375 0 L 21.671875 0 C 21.078125 0 20.640625 -0.125 20.359375 -0.375 C 20.078125 -0.625 19.9375 -1.03125 19.9375 -1.59375 L 19.9375 -7.796875 L 12.09375 -7.796875 Z M 12.09375 -1.59375 "/></g></g></g><g fill="#ff00ff" fill-opacity="1"><g transform="translate(220.639896, 169.945683)"><g><path d="M 11.296875 0 L 4.65625 0 C 4.09375 0 3.6875 -0.125 3.4375 -0.375 C 3.1875 -0.625 3.0625 -1.03125 3.0625 -1.59375 L 3.0625 -30.3125 C 3.0625 -30.875 3.1875 -31.28125 3.4375 -31.53125 C 3.6875 -31.78125 4.09375 -31.90625 4.65625 -31.90625 L 9.265625 -31.90625 C 9.828125 -31.90625 10.304688 -31.816406 10.703125 -31.640625 C 11.097656 -31.460938 11.488281 -31.148438 11.875 -30.703125 L 20.46875 -20.875 L 20.46875 -30.3125 C 20.46875 -30.875 20.59375 -31.28125 20.84375 -31.53125 C 21.09375 -31.78125 21.5 -31.90625 22.0625 -31.90625 L 28.71875 -31.90625 C 29.28125 -31.90625 29.6875 -31.78125 29.9375 -31.53125 C 30.1875 -31.28125 30.3125 -30.875 30.3125 -30.3125 L 30.3125 -1.59375 C 30.3125 -1.03125 30.1875 -0.625 29.9375 -0.375 C 29.6875 -0.125 29.28125 0 28.71875 0 L 22.0625 0 C 21.5 0 21.09375 -0.125 20.84375 -0.375 C 20.59375 -0.625 20.46875 -1.03125 20.46875 -1.59375 L 20.46875 -7.046875 L 12.890625 -16.21875 L 12.890625 -1.59375 C 12.890625 -1.03125 12.765625 -0.625 12.515625 -0.375 C 12.265625 -0.125 11.859375 0 11.296875 0 Z M 11.296875 0 "/></g></g></g><g fill="#ff00ff" fill-opacity="1"><g transform="translate(254.00432, 169.945683)"><g><path d="M 19.59375 0 L 4.65625 0 C 4.09375 0 3.6875 -0.125 3.4375 -0.375 C 3.1875 -0.625 3.0625 -1.03125 3.0625 -1.59375 L 3.0625 -30.3125 C 3.0625 -30.875 3.1875 -31.28125 3.4375 -31.53125 C 3.6875 -31.78125 4.09375 -31.90625 4.65625 -31.90625 L 19.59375 -31.90625 C 23.28125 -31.90625 26.015625 -31.164062 27.796875 -29.6875 C 29.585938 -28.207031 30.484375 -25.929688 30.484375 -22.859375 L 30.484375 -9.046875 C 30.484375 -5.972656 29.585938 -3.695312 27.796875 -2.21875 C 26.015625 -0.738281 23.28125 0 19.59375 0 Z M 13.109375 -23.4375 L 13.109375 -8.375 L 18.390625 -8.375 C 19.097656 -8.375 19.617188 -8.550781 19.953125 -8.90625 C 20.296875 -9.257812 20.46875 -9.804688 20.46875 -10.546875 L 20.46875 -21.3125 C 20.46875 -22.050781 20.296875 -22.585938 19.953125 -22.921875 C 19.617188 -23.265625 19.097656 -23.4375 18.390625 -23.4375 Z M 13.109375 -23.4375 "/></g></g></g><g fill="#ff00ff" fill-opacity="1"><g transform="translate(287.058585, 169.945683)"><g><path d="M 30.09375 -8.375 C 30.09375 -7.019531 29.890625 -5.785156 29.484375 -4.671875 C 29.085938 -3.566406 28.378906 -2.625 27.359375 -1.84375 C 26.335938 -1.0625 24.929688 -0.445312 23.140625 0 C 21.359375 0.445312 19.09375 0.671875 16.34375 0.671875 C 13.601562 0.671875 11.332031 0.445312 9.53125 0 C 7.726562 -0.445312 6.316406 -1.0625 5.296875 -1.84375 C 4.273438 -2.625 3.5625 -3.566406 3.15625 -4.671875 C 2.757812 -5.785156 2.5625 -7.019531 2.5625 -8.375 L 2.5625 -23.484375 C 2.5625 -24.847656 2.757812 -26.082031 3.15625 -27.1875 C 3.5625 -28.289062 4.273438 -29.238281 5.296875 -30.03125 C 6.316406 -30.832031 7.726562 -31.453125 9.53125 -31.890625 C 11.332031 -32.335938 13.601562 -32.5625 16.34375 -32.5625 C 19.09375 -32.5625 21.359375 -32.335938 23.140625 -31.890625 C 24.929688 -31.453125 26.335938 -30.832031 27.359375 -30.03125 C 28.378906 -29.238281 29.085938 -28.289062 29.484375 -27.1875 C 29.890625 -26.082031 30.09375 -24.847656 30.09375 -23.484375 Z M 12.625 -9.96875 C 12.625 -9.375 12.84375 -8.878906 13.28125 -8.484375 C 13.726562 -8.085938 14.75 -7.890625 16.34375 -7.890625 C 17.945312 -7.890625 18.96875 -8.085938 19.40625 -8.484375 C 19.851562 -8.878906 20.078125 -9.375 20.078125 -9.96875 L 20.078125 -21.890625 C 20.078125 -22.453125 19.851562 -22.929688 19.40625 -23.328125 C 18.96875 -23.722656 17.945312 -23.921875 16.34375 -23.921875 C 14.75 -23.921875 13.726562 -23.722656 13.28125 -23.328125 C 12.84375 -22.929688 12.625 -22.453125 12.625 -21.890625 Z M 12.625 -9.96875 "/></g></g></g><g fill="#ff00ff" fill-opacity="1"><g transform="translate(319.71407, 169.945683)"><g><path d="M 12.984375 0 L 4.03125 0 C 3.46875 0 3.0625 -0.125 2.8125 -0.375 C 2.5625 -0.625 2.4375 -1.03125 2.4375 -1.59375 L 2.4375 -10.59375 C 2.4375 -11.15625 2.5625 -11.5625 2.8125 -11.8125 C 3.0625 -12.0625 3.46875 -12.1875 4.03125 -12.1875 L 12.984375 -12.1875 C 13.546875 -12.1875 13.953125 -12.0625 14.203125 -11.8125 C 14.453125 -11.5625 14.578125 -11.15625 14.578125 -10.59375 L 14.578125 -1.59375 C 14.578125 -1.03125 14.453125 -0.625 14.203125 -0.375 C 13.953125 -0.125 13.546875 0 12.984375 0 Z M 12.984375 0 "/></g></g></g><g fill="#ff00ff" fill-opacity="1"><g transform="translate(336.728595, 169.945683)"><g><path d="M 12.984375 0 L 4.03125 0 C 3.46875 0 3.0625 -0.125 2.8125 -0.375 C 2.5625 -0.625 2.4375 -1.03125 2.4375 -1.59375 L 2.4375 -10.59375 C 2.4375 -11.15625 2.5625 -11.5625 2.8125 -11.8125 C 3.0625 -12.0625 3.46875 -12.1875 4.03125 -12.1875 L 12.984375 -12.1875 C 13.546875 -12.1875 13.953125 -12.0625 14.203125 -11.8125 C 14.453125 -11.5625 14.578125 -11.15625 14.578125 -10.59375 L 14.578125 -1.59375 C 14.578125 -1.03125 14.453125 -0.625 14.203125 -0.375 C 13.953125 -0.125 13.546875 0 12.984375 0 Z M 12.984375 0 "/></g></g></g><g fill="#ff00ff" fill-opacity="1"><g transform="translate(353.74312, 169.945683)"><g><path d="M 12.984375 0 L 4.03125 0 C 3.46875 0 3.0625 -0.125 2.8125 -0.375 C 2.5625 -0.625 2.4375 -1.03125 2.4375 -1.59375 L 2.4375 -10.59375 C 2.4375 -11.15625 2.5625 -11.5625 2.8125 -11.8125 C 3.0625 -12.0625 3.46875 -12.1875 4.03125 -12.1875 L 12.984375 -12.1875 C 13.546875 -12.1875 13.953125 -12.0625 14.203125 -11.8125 C 14.453125 -11.5625 14.578125 -11.15625 14.578125 -10.59375 L 14.578125 -1.59375 C 14.578125 -1.03125 14.453125 -0.625 14.203125 -0.375 C 13.953125 -0.125 13.546875 0 12.984375 0 Z M 12.984375 0 "/></g></g></g><g fill="#00ffff" fill-opacity="1"><g transform="translate(4.241969, 167.791923)"><g><path d="M 24.28125 0 L 13.46875 0 C 9.78125 0 7.039062 -0.738281 5.25 -2.21875 C 3.457031 -3.695312 2.5625 -5.972656 2.5625 -9.046875 L 2.5625 -22.828125 C 2.5625 -25.890625 3.457031 -28.164062 5.25 -29.65625 C 7.039062 -31.15625 9.78125 -31.90625 13.46875 -31.90625 L 24.28125 -31.90625 C 24.84375 -31.90625 25.25 -31.78125 25.5 -31.53125 C 25.75 -31.28125 25.875 -30.875 25.875 -30.3125 L 25.875 -24.953125 C 25.875 -24.390625 25.75 -23.984375 25.5 -23.734375 C 25.25 -23.484375 24.84375 -23.359375 24.28125 -23.359375 L 15.375 -23.359375 C 14.457031 -23.359375 13.773438 -23.171875 13.328125 -22.796875 C 12.890625 -22.429688 12.671875 -21.878906 12.671875 -21.140625 L 12.671875 -10.59375 C 12.671875 -9.851562 12.890625 -9.3125 13.328125 -8.96875 C 13.773438 -8.632812 14.457031 -8.46875 15.375 -8.46875 L 24.28125 -8.46875 C 24.84375 -8.46875 25.25 -8.335938 25.5 -8.078125 C 25.75 -7.828125 25.875 -7.425781 25.875 -6.875 L 25.875 -1.59375 C 25.875 -1.03125 25.75 -0.625 25.5 -0.375 C 25.25 -0.125 24.84375 0 24.28125 0 Z M 24.28125 0 "/></g></g></g><g fill="#00ffff" fill-opacity="1"><g transform="translate(32.067808, 167.791923)"><g><path d="M 14.625 -22.59375 L 12.546875 -15.859375 L 19.5 -15.859375 L 17.421875 -22.59375 C 17.296875 -22.863281 17.164062 -23.054688 17.03125 -23.171875 C 16.90625 -23.296875 16.753906 -23.359375 16.578125 -23.359375 L 15.46875 -23.359375 C 15.289062 -23.359375 15.132812 -23.296875 15 -23.171875 C 14.863281 -23.054688 14.738281 -22.863281 14.625 -22.59375 Z M 12.09375 -1.59375 C 12.09375 -1.03125 11.96875 -0.625 11.71875 -0.375 C 11.46875 -0.125 11.0625 0 10.5 0 L 3.984375 0 C 3.421875 0 3.015625 -0.125 2.765625 -0.375 C 2.515625 -0.625 2.390625 -1.03125 2.390625 -1.59375 L 2.390625 -13.296875 C 2.390625 -14.179688 2.53125 -15.195312 2.8125 -16.34375 C 3.09375 -17.5 3.53125 -18.847656 4.125 -20.390625 L 7.96875 -30.4375 C 8.144531 -30.945312 8.414062 -31.316406 8.78125 -31.546875 C 9.15625 -31.785156 9.640625 -31.90625 10.234375 -31.90625 L 22.15625 -31.90625 C 22.71875 -31.90625 23.179688 -31.785156 23.546875 -31.546875 C 23.921875 -31.316406 24.195312 -30.945312 24.375 -30.4375 L 28.234375 -20.390625 C 28.816406 -18.847656 29.25 -17.5 29.53125 -16.34375 C 29.8125 -15.195312 29.953125 -14.179688 29.953125 -13.296875 L 29.953125 -1.59375 C 29.953125 -1.03125 29.828125 -0.625 29.578125 -0.375 C 29.328125 -0.125 28.921875 0 28.359375 0 L 21.671875 0 C 21.078125 0 20.640625 -0.125 20.359375 -0.375 C 20.078125 -0.625 19.9375 -1.03125 19.9375 -1.59375 L 19.9375 -7.796875 L 12.09375 -7.796875 Z M 12.09375 -1.59375 "/></g></g></g><g fill="#00ffff" fill-opacity="1"><g transform="translate(64.413135, 167.791923)"><g><path d="M 13.078125 -23.921875 L 13.078125 -18.25 L 16.390625 -18.25 C 17.160156 -18.25 17.675781 -18.445312 17.9375 -18.84375 C 18.207031 -19.25 18.34375 -19.75 18.34375 -20.34375 L 18.34375 -21.84375 C 18.34375 -22.4375 18.207031 -22.929688 17.9375 -23.328125 C 17.675781 -23.722656 17.160156 -23.921875 16.390625 -23.921875 Z M 11.484375 0 L 4.65625 0 C 4.09375 0 3.6875 -0.125 3.4375 -0.375 C 3.1875 -0.625 3.0625 -1.03125 3.0625 -1.59375 L 3.0625 -30.3125 C 3.0625 -30.875 3.1875 -31.28125 3.4375 -31.53125 C 3.6875 -31.78125 4.09375 -31.90625 4.65625 -31.90625 L 19.40625 -31.90625 C 22.71875 -31.90625 25 -31.21875 26.25 -29.84375 C 27.507812 -28.46875 28.140625 -26.6875 28.140625 -24.5 L 28.140625 -22.46875 C 28.140625 -21.226562 27.953125 -20.171875 27.578125 -19.296875 C 27.210938 -18.421875 26.570312 -17.796875 25.65625 -17.421875 C 27.25 -17.242188 28.539062 -16.59375 29.53125 -15.46875 C 30.519531 -14.34375 31.015625 -12.847656 31.015625 -10.984375 L 31.015625 -1.59375 C 31.015625 -1.03125 30.890625 -0.625 30.640625 -0.375 C 30.390625 -0.125 29.984375 0 29.421875 0 L 22.5625 0 C 22 0 21.585938 -0.125 21.328125 -0.375 C 21.078125 -0.625 20.953125 -1.03125 20.953125 -1.59375 L 20.953125 -8.375 C 20.953125 -9.019531 20.828125 -9.5 20.578125 -9.8125 C 20.328125 -10.125 19.894531 -10.28125 19.28125 -10.28125 L 13.078125 -10.28125 L 13.078125 -1.59375 C 13.078125 -1.03125 12.945312 -0.625 12.6875 -0.375 C 12.4375 -0.125 12.035156 0 11.484375 0 Z M 11.484375 0 "/></g></g></g><g fill="#00ffff" fill-opacity="1"><g transform="translate(97.334466, 167.791923)"><g><path d="M 13.078125 -23.921875 L 13.078125 -18.25 L 16.390625 -18.25 C 17.160156 -18.25 17.675781 -18.445312 17.9375 -18.84375 C 18.207031 -19.25 18.34375 -19.75 18.34375 -20.34375 L 18.34375 -21.84375 C 18.34375 -22.4375 18.207031 -22.929688 17.9375 -23.328125 C 17.675781 -23.722656 17.160156 -23.921875 16.390625 -23.921875 Z M 11.484375 0 L 4.65625 0 C 4.09375 0 3.6875 -0.125 3.4375 -0.375 C 3.1875 -0.625 3.0625 -1.03125 3.0625 -1.59375 L 3.0625 -30.3125 C 3.0625 -30.875 3.1875 -31.28125 3.4375 -31.53125 C 3.6875 -31.78125 4.09375 -31.90625 4.65625 -31.90625 L 19.40625 -31.90625 C 22.71875 -31.90625 25 -31.21875 26.25 -29.84375 C 27.507812 -28.46875 28.140625 -26.6875 28.140625 -24.5 L 28.140625 -22.46875 C 28.140625 -21.226562 27.953125 -20.171875 27.578125 -19.296875 C 27.210938 -18.421875 26.570312 -17.796875 25.65625 -17.421875 C 27.25 -17.242188 28.539062 -16.59375 29.53125 -15.46875 C 30.519531 -14.34375 31.015625 -12.847656 31.015625 -10.984375 L 31.015625 -1.59375 C 31.015625 -1.03125 30.890625 -0.625 30.640625 -0.375 C 30.390625 -0.125 29.984375 0 29.421875 0 L 22.5625 0 C 22 0 21.585938 -0.125 21.328125 -0.375 C 21.078125 -0.625 20.953125 -1.03125 20.953125 -1.59375 L 20.953125 -8.375 C 20.953125 -9.019531 20.828125 -9.5 20.578125 -9.8125 C 20.328125 -10.125 19.894531 -10.28125 19.28125 -10.28125 L 13.078125 -10.28125 L 13.078125 -1.59375 C 13.078125 -1.03125 12.945312 -0.625 12.6875 -0.375 C 12.4375 -0.125 12.035156 0 11.484375 0 Z M 11.484375 0 "/></g></g></g><g fill="#00ffff" fill-opacity="1"><g transform="translate(130.255797, 167.791923)"><g><path d="M 25.21875 0 L 4.65625 0 C 4.09375 0 3.6875 -0.125 3.4375 -0.375 C 3.1875 -0.625 3.0625 -1.03125 3.0625 -1.59375 L 3.0625 -30.3125 C 3.0625 -30.875 3.1875 -31.28125 3.4375 -31.53125 C 3.6875 -31.78125 4.09375 -31.90625 4.65625 -31.90625 L 25.21875 -31.90625 C 25.78125 -31.90625 26.1875 -31.78125 26.4375 -31.53125 C 26.6875 -31.28125 26.8125 -30.875 26.8125 -30.3125 L 26.8125 -25.125 C 26.8125 -24.5625 26.6875 -24.15625 26.4375 -23.90625 C 26.1875 -23.65625 25.78125 -23.53125 25.21875 -23.53125 L 12.984375 -23.53125 L 12.984375 -20.125 L 21.625 -20.125 C 22.1875 -20.125 22.59375 -19.992188 22.84375 -19.734375 C 23.09375 -19.484375 23.21875 -19.078125 23.21875 -18.515625 L 23.21875 -13.78125 C 23.21875 -13.21875 23.09375 -12.8125 22.84375 -12.5625 C 22.59375 -12.3125 22.1875 -12.1875 21.625 -12.1875 L 12.984375 -12.1875 L 12.984375 -8.375 L 25.21875 -8.375 C 25.78125 -8.375 26.1875 -8.25 26.4375 -8 C 26.6875 -7.75 26.8125 -7.34375 26.8125 -6.78125 L 26.8125 -1.59375 C 26.8125 -1.03125 26.6875 -0.625 26.4375 -0.375 C 26.1875 -0.125 25.78125 0 25.21875 0 Z M 25.21875 0 "/></g></g></g><g fill="#00ffff" fill-opacity="1"><g transform="translate(159.233666, 167.791923)"><g><path d="M 27.421875 0 L 13.46875 0 C 9.78125 0 7.039062 -0.738281 5.25 -2.21875 C 3.457031 -3.695312 2.5625 -5.972656 2.5625 -9.046875 L 2.5625 -22.859375 C 2.5625 -25.929688 3.457031 -28.207031 5.25 -29.6875 C 7.039062 -31.164062 9.78125 -31.90625 13.46875 -31.90625 L 24.546875 -31.90625 C 25.109375 -31.90625 25.515625 -31.78125 25.765625 -31.53125 C 26.015625 -31.28125 26.140625 -30.875 26.140625 -30.3125 L 26.140625 -24.953125 C 26.140625 -24.390625 26.015625 -23.984375 25.765625 -23.734375 C 25.515625 -23.484375 25.109375 -23.359375 24.546875 -23.359375 L 15.328125 -23.359375 C 14.410156 -23.359375 13.726562 -23.171875 13.28125 -22.796875 C 12.84375 -22.429688 12.625 -21.878906 12.625 -21.140625 L 12.625 -10.546875 C 12.625 -9.804688 12.789062 -9.257812 13.125 -8.90625 C 13.46875 -8.550781 13.984375 -8.375 14.671875 -8.375 L 18.96875 -8.375 L 18.96875 -15.28125 C 18.96875 -15.84375 19.09375 -16.25 19.34375 -16.5 C 19.59375 -16.757812 20 -16.890625 20.5625 -16.890625 L 27.421875 -16.890625 C 27.984375 -16.890625 28.390625 -16.757812 28.640625 -16.5 C 28.898438 -16.25 29.03125 -15.84375 29.03125 -15.28125 L 29.03125 -1.59375 C 29.03125 -1.03125 28.898438 -0.625 28.640625 -0.375 C 28.390625 -0.125 27.984375 0 27.421875 0 Z M 27.421875 0 "/></g></g></g><g fill="#00ffff" fill-opacity="1"><g transform="translate(190.604197, 167.791923)"><g><path d="M 14.625 -22.59375 L 12.546875 -15.859375 L 19.5 -15.859375 L 17.421875 -22.59375 C 17.296875 -22.863281 17.164062 -23.054688 17.03125 -23.171875 C 16.90625 -23.296875 16.753906 -23.359375 16.578125 -23.359375 L 15.46875 -23.359375 C 15.289062 -23.359375 15.132812 -23.296875 15 -23.171875 C 14.863281 -23.054688 14.738281 -22.863281 14.625 -22.59375 Z M 12.09375 -1.59375 C 12.09375 -1.03125 11.96875 -0.625 11.71875 -0.375 C 11.46875 -0.125 11.0625 0 10.5 0 L 3.984375 0 C 3.421875 0 3.015625 -0.125 2.765625 -0.375 C 2.515625 -0.625 2.390625 -1.03125 2.390625 -1.59375 L 2.390625 -13.296875 C 2.390625 -14.179688 2.53125 -15.195312 2.8125 -16.34375 C 3.09375 -17.5 3.53125 -18.847656 4.125 -20.390625 L 7.96875 -30.4375 C 8.144531 -30.945312 8.414062 -31.316406 8.78125 -31.546875 C 9.15625 -31.785156 9.640625 -31.90625 10.234375 -31.90625 L 22.15625 -31.90625 C 22.71875 -31.90625 23.179688 -31.785156 23.546875 -31.546875 C 23.921875 -31.316406 24.195312 -30.945312 24.375 -30.4375 L 28.234375 -20.390625 C 28.816406 -18.847656 29.25 -17.5 29.53125 -16.34375 C 29.8125 -15.195312 29.953125 -14.179688 29.953125 -13.296875 L 29.953125 -1.59375 C 29.953125 -1.03125 29.828125 -0.625 29.578125 -0.375 C 29.328125 -0.125 28.921875 0 28.359375 0 L 21.671875 0 C 21.078125 0 20.640625 -0.125 20.359375 -0.375 C 20.078125 -0.625 19.9375 -1.03125 19.9375 -1.59375 L 19.9375 -7.796875 L 12.09375 -7.796875 Z M 12.09375 -1.59375 "/></g></g></g><g fill="#00ffff" fill-opacity="1"><g transform="translate(222.949535, 167.791923)"><g><path d="M 11.296875 0 L 4.65625 0 C 4.09375 0 3.6875 -0.125 3.4375 -0.375 C 3.1875 -0.625 3.0625 -1.03125 3.0625 -1.59375 L 3.0625 -30.3125 C 3.0625 -30.875 3.1875 -31.28125 3.4375 -31.53125 C 3.6875 -31.78125 4.09375 -31.90625 4.65625 -31.90625 L 9.265625 -31.90625 C 9.828125 -31.90625 10.304688 -31.816406 10.703125 -31.640625 C 11.097656 -31.460938 11.488281 -31.148438 11.875 -30.703125 L 20.46875 -20.875 L 20.46875 -30.3125 C 20.46875 -30.875 20.59375 -31.28125 20.84375 -31.53125 C 21.09375 -31.78125 21.5 -31.90625 22.0625 -31.90625 L 28.71875 -31.90625 C 29.28125 -31.90625 29.6875 -31.78125 29.9375 -31.53125 C 30.1875 -31.28125 30.3125 -30.875 30.3125 -30.3125 L 30.3125 -1.59375 C 30.3125 -1.03125 30.1875 -0.625 29.9375 -0.375 C 29.6875 -0.125 29.28125 0 28.71875 0 L 22.0625 0 C 21.5 0 21.09375 -0.125 20.84375 -0.375 C 20.59375 -0.625 20.46875 -1.03125 20.46875 -1.59375 L 20.46875 -7.046875 L 12.890625 -16.21875 L 12.890625 -1.59375 C 12.890625 -1.03125 12.765625 -0.625 12.515625 -0.375 C 12.265625 -0.125 11.859375 0 11.296875 0 Z M 11.296875 0 "/></g></g></g><g fill="#00ffff" fill-opacity="1"><g transform="translate(256.313959, 167.791923)"><g><path d="M 19.59375 0 L 4.65625 0 C 4.09375 0 3.6875 -0.125 3.4375 -0.375 C 3.1875 -0.625 3.0625 -1.03125 3.0625 -1.59375 L 3.0625 -30.3125 C 3.0625 -30.875 3.1875 -31.28125 3.4375 -31.53125 C 3.6875 -31.78125 4.09375 -31.90625 4.65625 -31.90625 L 19.59375 -31.90625 C 23.28125 -31.90625 26.015625 -31.164062 27.796875 -29.6875 C 29.585938 -28.207031 30.484375 -25.929688 30.484375 -22.859375 L 30.484375 -9.046875 C 30.484375 -5.972656 29.585938 -3.695312 27.796875 -2.21875 C 26.015625 -0.738281 23.28125 0 19.59375 0 Z M 13.109375 -23.4375 L 13.109375 -8.375 L 18.390625 -8.375 C 19.097656 -8.375 19.617188 -8.550781 19.953125 -8.90625 C 20.296875 -9.257812 20.46875 -9.804688 20.46875 -10.546875 L 20.46875 -21.3125 C 20.46875 -22.050781 20.296875 -22.585938 19.953125 -22.921875 C 19.617188 -23.265625 19.097656 -23.4375 18.390625 -23.4375 Z M 13.109375 -23.4375 "/></g></g></g><g fill="#00ffff" fill-opacity="1"><g transform="translate(289.368224, 167.791923)"><g><path d="M 30.09375 -8.375 C 30.09375 -7.019531 29.890625 -5.785156 29.484375 -4.671875 C 29.085938 -3.566406 28.378906 -2.625 27.359375 -1.84375 C 26.335938 -1.0625 24.929688 -0.445312 23.140625 0 C 21.359375 0.445312 19.09375 0.671875 16.34375 0.671875 C 13.601562 0.671875 11.332031 0.445312 9.53125 0 C 7.726562 -0.445312 6.316406 -1.0625 5.296875 -1.84375 C 4.273438 -2.625 3.5625 -3.566406 3.15625 -4.671875 C 2.757812 -5.785156 2.5625 -7.019531 2.5625 -8.375 L 2.5625 -23.484375 C 2.5625 -24.847656 2.757812 -26.082031 3.15625 -27.1875 C 3.5625 -28.289062 4.273438 -29.238281 5.296875 -30.03125 C 6.316406 -30.832031 7.726562 -31.453125 9.53125 -31.890625 C 11.332031 -32.335938 13.601562 -32.5625 16.34375 -32.5625 C 19.09375 -32.5625 21.359375 -32.335938 23.140625 -31.890625 C 24.929688 -31.453125 26.335938 -30.832031 27.359375 -30.03125 C 28.378906 -29.238281 29.085938 -28.289062 29.484375 -27.1875 C 29.890625 -26.082031 30.09375 -24.847656 30.09375 -23.484375 Z M 12.625 -9.96875 C 12.625 -9.375 12.84375 -8.878906 13.28125 -8.484375 C 13.726562 -8.085938 14.75 -7.890625 16.34375 -7.890625 C 17.945312 -7.890625 18.96875 -8.085938 19.40625 -8.484375 C 19.851562 -8.878906 20.078125 -9.375 20.078125 -9.96875 L 20.078125 -21.890625 C 20.078125 -22.453125 19.851562 -22.929688 19.40625 -23.328125 C 18.96875 -23.722656 17.945312 -23.921875 16.34375 -23.921875 C 14.75 -23.921875 13.726562 -23.722656 13.28125 -23.328125 C 12.84375 -22.929688 12.625 -22.453125 12.625 -21.890625 Z M 12.625 -9.96875 "/></g></g></g><g fill="#00ffff" fill-opacity="1"><g transform="translate(322.023709, 167.791923)"><g><path d="M 12.984375 0 L 4.03125 0 C 3.46875 0 3.0625 -0.125 2.8125 -0.375 C 2.5625 -0.625 2.4375 -1.03125 2.4375 -1.59375 L 2.4375 -10.59375 C 2.4375 -11.15625 2.5625 -11.5625 2.8125 -11.8125 C 3.0625 -12.0625 3.46875 -12.1875 4.03125 -12.1875 L 12.984375 -12.1875 C 13.546875 -12.1875 13.953125 -12.0625 14.203125 -11.8125 C 14.453125 -11.5625 14.578125 -11.15625 14.578125 -10.59375 L 14.578125 -1.59375 C 14.578125 -1.03125 14.453125 -0.625 14.203125 -0.375 C 13.953125 -0.125 13.546875 0 12.984375 0 Z M 12.984375 0 "/></g></g></g><g fill="#00ffff" fill-opacity="1"><g transform="translate(339.038234, 167.791923)"><g><path d="M 12.984375 0 L 4.03125 0 C 3.46875 0 3.0625 -0.125 2.8125 -0.375 C 2.5625 -0.625 2.4375 -1.03125 2.4375 -1.59375 L 2.4375 -10.59375 C 2.4375 -11.15625 2.5625 -11.5625 2.8125 -11.8125 C 3.0625 -12.0625 3.46875 -12.1875 4.03125 -12.1875 L 12.984375 -12.1875 C 13.546875 -12.1875 13.953125 -12.0625 14.203125 -11.8125 C 14.453125 -11.5625 14.578125 -11.15625 14.578125 -10.59375 L 14.578125 -1.59375 C 14.578125 -1.03125 14.453125 -0.625 14.203125 -0.375 C 13.953125 -0.125 13.546875 0 12.984375 0 Z M 12.984375 0 "/></g></g></g><g fill="#00ffff" fill-opacity="1"><g transform="translate(356.052759, 167.791923)"><g><path d="M 12.984375 0 L 4.03125 0 C 3.46875 0 3.0625 -0.125 2.8125 -0.375 C 2.5625 -0.625 2.4375 -1.03125 2.4375 -1.59375 L 2.4375 -10.59375 C 2.4375 -11.15625 2.5625 -11.5625 2.8125 -11.8125 C 3.0625 -12.0625 3.46875 -12.1875 4.03125 -12.1875 L 12.984375 -12.1875 C 13.546875 -12.1875 13.953125 -12.0625 14.203125 -11.8125 C 14.453125 -11.5625 14.578125 -11.15625 14.578125 -10.59375 L 14.578125 -1.59375 C 14.578125 -1.03125 14.453125 -0.625 14.203125 -0.375 C 13.953125 -0.125 13.546875 0 12.984375 0 Z M 12.984375 0 "/></g></g></g><g fill="#7843e6" fill-opacity="1"><g transform="translate(3.08715, 168.868803)"><g><path d="M 24.28125 0 L 13.46875 0 C 9.78125 0 7.039062 -0.738281 5.25 -2.21875 C 3.457031 -3.695312 2.5625 -5.972656 2.5625 -9.046875 L 2.5625 -22.828125 C 2.5625 -25.890625 3.457031 -28.164062 5.25 -29.65625 C 7.039062 -31.15625 9.78125 -31.90625 13.46875 -31.90625 L 24.28125 -31.90625 C 24.84375 -31.90625 25.25 -31.78125 25.5 -31.53125 C 25.75 -31.28125 25.875 -30.875 25.875 -30.3125 L 25.875 -24.953125 C 25.875 -24.390625 25.75 -23.984375 25.5 -23.734375 C 25.25 -23.484375 24.84375 -23.359375 24.28125 -23.359375 L 15.375 -23.359375 C 14.457031 -23.359375 13.773438 -23.171875 13.328125 -22.796875 C 12.890625 -22.429688 12.671875 -21.878906 12.671875 -21.140625 L 12.671875 -10.59375 C 12.671875 -9.851562 12.890625 -9.3125 13.328125 -8.96875 C 13.773438 -8.632812 14.457031 -8.46875 15.375 -8.46875 L 24.28125 -8.46875 C 24.84375 -8.46875 25.25 -8.335938 25.5 -8.078125 C 25.75 -7.828125 25.875 -7.425781 25.875 -6.875 L 25.875 -1.59375 C 25.875 -1.03125 25.75 -0.625 25.5 -0.375 C 25.25 -0.125 24.84375 0 24.28125 0 Z M 24.28125 0 "/></g></g></g><g fill="#7843e6" fill-opacity="1"><g transform="translate(30.912988, 168.868803)"><g><path d="M 14.625 -22.59375 L 12.546875 -15.859375 L 19.5 -15.859375 L 17.421875 -22.59375 C 17.296875 -22.863281 17.164062 -23.054688 17.03125 -23.171875 C 16.90625 -23.296875 16.753906 -23.359375 16.578125 -23.359375 L 15.46875 -23.359375 C 15.289062 -23.359375 15.132812 -23.296875 15 -23.171875 C 14.863281 -23.054688 14.738281 -22.863281 14.625 -22.59375 Z M 12.09375 -1.59375 C 12.09375 -1.03125 11.96875 -0.625 11.71875 -0.375 C 11.46875 -0.125 11.0625 0 10.5 0 L 3.984375 0 C 3.421875 0 3.015625 -0.125 2.765625 -0.375 C 2.515625 -0.625 2.390625 -1.03125 2.390625 -1.59375 L 2.390625 -13.296875 C 2.390625 -14.179688 2.53125 -15.195312 2.8125 -16.34375 C 3.09375 -17.5 3.53125 -18.847656 4.125 -20.390625 L 7.96875 -30.4375 C 8.144531 -30.945312 8.414062 -31.316406 8.78125 -31.546875 C 9.15625 -31.785156 9.640625 -31.90625 10.234375 -31.90625 L 22.15625 -31.90625 C 22.71875 -31.90625 23.179688 -31.785156 23.546875 -31.546875 C 23.921875 -31.316406 24.195312 -30.945312 24.375 -30.4375 L 28.234375 -20.390625 C 28.816406 -18.847656 29.25 -17.5 29.53125 -16.34375 C 29.8125 -15.195312 29.953125 -14.179688 29.953125 -13.296875 L 29.953125 -1.59375 C 29.953125 -1.03125 29.828125 -0.625 29.578125 -0.375 C 29.328125 -0.125 28.921875 0 28.359375 0 L 21.671875 0 C 21.078125 0 20.640625 -0.125 20.359375 -0.375 C 20.078125 -0.625 19.9375 -1.03125 19.9375 -1.59375 L 19.9375 -7.796875 L 12.09375 -7.796875 Z M 12.09375 -1.59375 "/></g></g></g><g fill="#7843e6" fill-opacity="1"><g transform="translate(63.258315, 168.868803)"><g><path d="M 13.078125 -23.921875 L 13.078125 -18.25 L 16.390625 -18.25 C 17.160156 -18.25 17.675781 -18.445312 17.9375 -18.84375 C 18.207031 -19.25 18.34375 -19.75 18.34375 -20.34375 L 18.34375 -21.84375 C 18.34375 -22.4375 18.207031 -22.929688 17.9375 -23.328125 C 17.675781 -23.722656 17.160156 -23.921875 16.390625 -23.921875 Z M 11.484375 0 L 4.65625 0 C 4.09375 0 3.6875 -0.125 3.4375 -0.375 C 3.1875 -0.625 3.0625 -1.03125 3.0625 -1.59375 L 3.0625 -30.3125 C 3.0625 -30.875 3.1875 -31.28125 3.4375 -31.53125 C 3.6875 -31.78125 4.09375 -31.90625 4.65625 -31.90625 L 19.40625 -31.90625 C 22.71875 -31.90625 25 -31.21875 26.25 -29.84375 C 27.507812 -28.46875 28.140625 -26.6875 28.140625 -24.5 L 28.140625 -22.46875 C 28.140625 -21.226562 27.953125 -20.171875 27.578125 -19.296875 C 27.210938 -18.421875 26.570312 -17.796875 25.65625 -17.421875 C 27.25 -17.242188 28.539062 -16.59375 29.53125 -15.46875 C 30.519531 -14.34375 31.015625 -12.847656 31.015625 -10.984375 L 31.015625 -1.59375 C 31.015625 -1.03125 30.890625 -0.625 30.640625 -0.375 C 30.390625 -0.125 29.984375 0 29.421875 0 L 22.5625 0 C 22 0 21.585938 -0.125 21.328125 -0.375 C 21.078125 -0.625 20.953125 -1.03125 20.953125 -1.59375 L 20.953125 -8.375 C 20.953125 -9.019531 20.828125 -9.5 20.578125 -9.8125 C 20.328125 -10.125 19.894531 -10.28125 19.28125 -10.28125 L 13.078125 -10.28125 L 13.078125 -1.59375 C 13.078125 -1.03125 12.945312 -0.625 12.6875 -0.375 C 12.4375 -0.125 12.035156 0 11.484375 0 Z M 11.484375 0 "/></g></g></g><g fill="#7843e6" fill-opacity="1"><g transform="translate(96.179646, 168.868803)"><g><path d="M 13.078125 -23.921875 L 13.078125 -18.25 L 16.390625 -18.25 C 17.160156 -18.25 17.675781 -18.445312 17.9375 -18.84375 C 18.207031 -19.25 18.34375 -19.75 18.34375 -20.34375 L 18.34375 -21.84375 C 18.34375 -22.4375 18.207031 -22.929688 17.9375 -23.328125 C 17.675781 -23.722656 17.160156 -23.921875 16.390625 -23.921875 Z M 11.484375 0 L 4.65625 0 C 4.09375 0 3.6875 -0.125 3.4375 -0.375 C 3.1875 -0.625 3.0625 -1.03125 3.0625 -1.59375 L 3.0625 -30.3125 C 3.0625 -30.875 3.1875 -31.28125 3.4375 -31.53125 C 3.6875 -31.78125 4.09375 -31.90625 4.65625 -31.90625 L 19.40625 -31.90625 C 22.71875 -31.90625 25 -31.21875 26.25 -29.84375 C 27.507812 -28.46875 28.140625 -26.6875 28.140625 -24.5 L 28.140625 -22.46875 C 28.140625 -21.226562 27.953125 -20.171875 27.578125 -19.296875 C 27.210938 -18.421875 26.570312 -17.796875 25.65625 -17.421875 C 27.25 -17.242188 28.539062 -16.59375 29.53125 -15.46875 C 30.519531 -14.34375 31.015625 -12.847656 31.015625 -10.984375 L 31.015625 -1.59375 C 31.015625 -1.03125 30.890625 -0.625 30.640625 -0.375 C 30.390625 -0.125 29.984375 0 29.421875 0 L 22.5625 0 C 22 0 21.585938 -0.125 21.328125 -0.375 C 21.078125 -0.625 20.953125 -1.03125 20.953125 -1.59375 L 20.953125 -8.375 C 20.953125 -9.019531 20.828125 -9.5 20.578125 -9.8125 C 20.328125 -10.125 19.894531 -10.28125 19.28125 -10.28125 L 13.078125 -10.28125 L 13.078125 -1.59375 C 13.078125 -1.03125 12.945312 -0.625 12.6875 -0.375 C 12.4375 -0.125 12.035156 0 11.484375 0 Z M 11.484375 0 "/></g></g></g><g fill="#7843e6" fill-opacity="1"><g transform="translate(129.100977, 168.868803)"><g><path d="M 25.21875 0 L 4.65625 0 C 4.09375 0 3.6875 -0.125 3.4375 -0.375 C 3.1875 -0.625 3.0625 -1.03125 3.0625 -1.59375 L 3.0625 -30.3125 C 3.0625 -30.875 3.1875 -31.28125 3.4375 -31.53125 C 3.6875 -31.78125 4.09375 -31.90625 4.65625 -31.90625 L 25.21875 -31.90625 C 25.78125 -31.90625 26.1875 -31.78125 26.4375 -31.53125 C 26.6875 -31.28125 26.8125 -30.875 26.8125 -30.3125 L 26.8125 -25.125 C 26.8125 -24.5625 26.6875 -24.15625 26.4375 -23.90625 C 26.1875 -23.65625 25.78125 -23.53125 25.21875 -23.53125 L 12.984375 -23.53125 L 12.984375 -20.125 L 21.625 -20.125 C 22.1875 -20.125 22.59375 -19.992188 22.84375 -19.734375 C 23.09375 -19.484375 23.21875 -19.078125 23.21875 -18.515625 L 23.21875 -13.78125 C 23.21875 -13.21875 23.09375 -12.8125 22.84375 -12.5625 C 22.59375 -12.3125 22.1875 -12.1875 21.625 -12.1875 L 12.984375 -12.1875 L 12.984375 -8.375 L 25.21875 -8.375 C 25.78125 -8.375 26.1875 -8.25 26.4375 -8 C 26.6875 -7.75 26.8125 -7.34375 26.8125 -6.78125 L 26.8125 -1.59375 C 26.8125 -1.03125 26.6875 -0.625 26.4375 -0.375 C 26.1875 -0.125 25.78125 0 25.21875 0 Z M 25.21875 0 "/></g></g></g><g fill="#7843e6" fill-opacity="1"><g transform="translate(158.078846, 168.868803)"><g><path d="M 27.421875 0 L 13.46875 0 C 9.78125 0 7.039062 -0.738281 5.25 -2.21875 C 3.457031 -3.695312 2.5625 -5.972656 2.5625 -9.046875 L 2.5625 -22.859375 C 2.5625 -25.929688 3.457031 -28.207031 5.25 -29.6875 C 7.039062 -31.164062 9.78125 -31.90625 13.46875 -31.90625 L 24.546875 -31.90625 C 25.109375 -31.90625 25.515625 -31.78125 25.765625 -31.53125 C 26.015625 -31.28125 26.140625 -30.875 26.140625 -30.3125 L 26.140625 -24.953125 C 26.140625 -24.390625 26.015625 -23.984375 25.765625 -23.734375 C 25.515625 -23.484375 25.109375 -23.359375 24.546875 -23.359375 L 15.328125 -23.359375 C 14.410156 -23.359375 13.726562 -23.171875 13.28125 -22.796875 C 12.84375 -22.429688 12.625 -21.878906 12.625 -21.140625 L 12.625 -10.546875 C 12.625 -9.804688 12.789062 -9.257812 13.125 -8.90625 C 13.46875 -8.550781 13.984375 -8.375 14.671875 -8.375 L 18.96875 -8.375 L 18.96875 -15.28125 C 18.96875 -15.84375 19.09375 -16.25 19.34375 -16.5 C 19.59375 -16.757812 20 -16.890625 20.5625 -16.890625 L 27.421875 -16.890625 C 27.984375 -16.890625 28.390625 -16.757812 28.640625 -16.5 C 28.898438 -16.25 29.03125 -15.84375 29.03125 -15.28125 L 29.03125 -1.59375 C 29.03125 -1.03125 28.898438 -0.625 28.640625 -0.375 C 28.390625 -0.125 27.984375 0 27.421875 0 Z M 27.421875 0 "/></g></g></g><g fill="#7843e6" fill-opacity="1"><g transform="translate(189.449377, 168.868803)"><g><path d="M 14.625 -22.59375 L 12.546875 -15.859375 L 19.5 -15.859375 L 17.421875 -22.59375 C 17.296875 -22.863281 17.164062 -23.054688 17.03125 -23.171875 C 16.90625 -23.296875 16.753906 -23.359375 16.578125 -23.359375 L 15.46875 -23.359375 C 15.289062 -23.359375 15.132812 -23.296875 15 -23.171875 C 14.863281 -23.054688 14.738281 -22.863281 14.625 -22.59375 Z M 12.09375 -1.59375 C 12.09375 -1.03125 11.96875 -0.625 11.71875 -0.375 C 11.46875 -0.125 11.0625 0 10.5 0 L 3.984375 0 C 3.421875 0 3.015625 -0.125 2.765625 -0.375 C 2.515625 -0.625 2.390625 -1.03125 2.390625 -1.59375 L 2.390625 -13.296875 C 2.390625 -14.179688 2.53125 -15.195312 2.8125 -16.34375 C 3.09375 -17.5 3.53125 -18.847656 4.125 -20.390625 L 7.96875 -30.4375 C 8.144531 -30.945312 8.414062 -31.316406 8.78125 -31.546875 C 9.15625 -31.785156 9.640625 -31.90625 10.234375 -31.90625 L 22.15625 -31.90625 C 22.71875 -31.90625 23.179688 -31.785156 23.546875 -31.546875 C 23.921875 -31.316406 24.195312 -30.945312 24.375 -30.4375 L 28.234375 -20.390625 C 28.816406 -18.847656 29.25 -17.5 29.53125 -16.34375 C 29.8125 -15.195312 29.953125 -14.179688 29.953125 -13.296875 L 29.953125 -1.59375 C 29.953125 -1.03125 29.828125 -0.625 29.578125 -0.375 C 29.328125 -0.125 28.921875 0 28.359375 0 L 21.671875 0 C 21.078125 0 20.640625 -0.125 20.359375 -0.375 C 20.078125 -0.625 19.9375 -1.03125 19.9375 -1.59375 L 19.9375 -7.796875 L 12.09375 -7.796875 Z M 12.09375 -1.59375 "/></g></g></g><g fill="#7843e6" fill-opacity="1"><g transform="translate(221.794716, 168.868803)"><g><path d="M 11.296875 0 L 4.65625 0 C 4.09375 0 3.6875 -0.125 3.4375 -0.375 C 3.1875 -0.625 3.0625 -1.03125 3.0625 -1.59375 L 3.0625 -30.3125 C 3.0625 -30.875 3.1875 -31.28125 3.4375 -31.53125 C 3.6875 -31.78125 4.09375 -31.90625 4.65625 -31.90625 L 9.265625 -31.90625 C 9.828125 -31.90625 10.304688 -31.816406 10.703125 -31.640625 C 11.097656 -31.460938 11.488281 -31.148438 11.875 -30.703125 L 20.46875 -20.875 L 20.46875 -30.3125 C 20.46875 -30.875 20.59375 -31.28125 20.84375 -31.53125 C 21.09375 -31.78125 21.5 -31.90625 22.0625 -31.90625 L 28.71875 -31.90625 C 29.28125 -31.90625 29.6875 -31.78125 29.9375 -31.53125 C 30.1875 -31.28125 30.3125 -30.875 30.3125 -30.3125 L 30.3125 -1.59375 C 30.3125 -1.03125 30.1875 -0.625 29.9375 -0.375 C 29.6875 -0.125 29.28125 0 28.71875 0 L 22.0625 0 C 21.5 0 21.09375 -0.125 20.84375 -0.375 C 20.59375 -0.625 20.46875 -1.03125 20.46875 -1.59375 L 20.46875 -7.046875 L 12.890625 -16.21875 L 12.890625 -1.59375 C 12.890625 -1.03125 12.765625 -0.625 12.515625 -0.375 C 12.265625 -0.125 11.859375 0 11.296875 0 Z M 11.296875 0 "/></g></g></g><g fill="#7843e6" fill-opacity="1"><g transform="translate(255.159139, 168.868803)"><g><path d="M 19.59375 0 L 4.65625 0 C 4.09375 0 3.6875 -0.125 3.4375 -0.375 C 3.1875 -0.625 3.0625 -1.03125 3.0625 -1.59375 L 3.0625 -30.3125 C 3.0625 -30.875 3.1875 -31.28125 3.4375 -31.53125 C 3.6875 -31.78125 4.09375 -31.90625 4.65625 -31.90625 L 19.59375 -31.90625 C 23.28125 -31.90625 26.015625 -31.164062 27.796875 -29.6875 C 29.585938 -28.207031 30.484375 -25.929688 30.484375 -22.859375 L 30.484375 -9.046875 C 30.484375 -5.972656 29.585938 -3.695312 27.796875 -2.21875 C 26.015625 -0.738281 23.28125 0 19.59375 0 Z M 13.109375 -23.4375 L 13.109375 -8.375 L 18.390625 -8.375 C 19.097656 -8.375 19.617188 -8.550781 19.953125 -8.90625 C 20.296875 -9.257812 20.46875 -9.804688 20.46875 -10.546875 L 20.46875 -21.3125 C 20.46875 -22.050781 20.296875 -22.585938 19.953125 -22.921875 C 19.617188 -23.265625 19.097656 -23.4375 18.390625 -23.4375 Z M 13.109375 -23.4375 "/></g></g></g><g fill="#7843e6" fill-opacity="1"><g transform="translate(288.213405, 168.868803)"><g><path d="M 30.09375 -8.375 C 30.09375 -7.019531 29.890625 -5.785156 29.484375 -4.671875 C 29.085938 -3.566406 28.378906 -2.625 27.359375 -1.84375 C 26.335938 -1.0625 24.929688 -0.445312 23.140625 0 C 21.359375 0.445312 19.09375 0.671875 16.34375 0.671875 C 13.601562 0.671875 11.332031 0.445312 9.53125 0 C 7.726562 -0.445312 6.316406 -1.0625 5.296875 -1.84375 C 4.273438 -2.625 3.5625 -3.566406 3.15625 -4.671875 C 2.757812 -5.785156 2.5625 -7.019531 2.5625 -8.375 L 2.5625 -23.484375 C 2.5625 -24.847656 2.757812 -26.082031 3.15625 -27.1875 C 3.5625 -28.289062 4.273438 -29.238281 5.296875 -30.03125 C 6.316406 -30.832031 7.726562 -31.453125 9.53125 -31.890625 C 11.332031 -32.335938 13.601562 -32.5625 16.34375 -32.5625 C 19.09375 -32.5625 21.359375 -32.335938 23.140625 -31.890625 C 24.929688 -31.453125 26.335938 -30.832031 27.359375 -30.03125 C 28.378906 -29.238281 29.085938 -28.289062 29.484375 -27.1875 C 29.890625 -26.082031 30.09375 -24.847656 30.09375 -23.484375 Z M 12.625 -9.96875 C 12.625 -9.375 12.84375 -8.878906 13.28125 -8.484375 C 13.726562 -8.085938 14.75 -7.890625 16.34375 -7.890625 C 17.945312 -7.890625 18.96875 -8.085938 19.40625 -8.484375 C 19.851562 -8.878906 20.078125 -9.375 20.078125 -9.96875 L 20.078125 -21.890625 C 20.078125 -22.453125 19.851562 -22.929688 19.40625 -23.328125 C 18.96875 -23.722656 17.945312 -23.921875 16.34375 -23.921875 C 14.75 -23.921875 13.726562 -23.722656 13.28125 -23.328125 C 12.84375 -22.929688 12.625 -22.453125 12.625 -21.890625 Z M 12.625 -9.96875 "/></g></g></g><g fill="#7843e6" fill-opacity="1"><g transform="translate(320.868889, 168.868803)"><g><path d="M 12.984375 0 L 4.03125 0 C 3.46875 0 3.0625 -0.125 2.8125 -0.375 C 2.5625 -0.625 2.4375 -1.03125 2.4375 -1.59375 L 2.4375 -10.59375 C 2.4375 -11.15625 2.5625 -11.5625 2.8125 -11.8125 C 3.0625 -12.0625 3.46875 -12.1875 4.03125 -12.1875 L 12.984375 -12.1875 C 13.546875 -12.1875 13.953125 -12.0625 14.203125 -11.8125 C 14.453125 -11.5625 14.578125 -11.15625 14.578125 -10.59375 L 14.578125 -1.59375 C 14.578125 -1.03125 14.453125 -0.625 14.203125 -0.375 C 13.953125 -0.125 13.546875 0 12.984375 0 Z M 12.984375 0 "/></g></g></g><g fill="#7843e6" fill-opacity="1"><g transform="translate(337.883414, 168.868803)"><g><path d="M 12.984375 0 L 4.03125 0 C 3.46875 0 3.0625 -0.125 2.8125 -0.375 C 2.5625 -0.625 2.4375 -1.03125 2.4375 -1.59375 L 2.4375 -10.59375 C 2.4375 -11.15625 2.5625 -11.5625 2.8125 -11.8125 C 3.0625 -12.0625 3.46875 -12.1875 4.03125 -12.1875 L 12.984375 -12.1875 C 13.546875 -12.1875 13.953125 -12.0625 14.203125 -11.8125 C 14.453125 -11.5625 14.578125 -11.15625 14.578125 -10.59375 L 14.578125 -1.59375 C 14.578125 -1.03125 14.453125 -0.625 14.203125 -0.375 C 13.953125 -0.125 13.546875 0 12.984375 0 Z M 12.984375 0 "/></g></g></g><g fill="#7843e6" fill-opacity="1"><g transform="translate(354.89794, 168.868803)"><g><path d="M 12.984375 0 L 4.03125 0 C 3.46875 0 3.0625 -0.125 2.8125 -0.375 C 2.5625 -0.625 2.4375 -1.03125 2.4375 -1.59375 L 2.4375 -10.59375 C 2.4375 -11.15625 2.5625 -11.5625 2.8125 -11.8125 C 3.0625 -12.0625 3.46875 -12.1875 4.03125 -12.1875 L 12.984375 -12.1875 C 13.546875 -12.1875 13.953125 -12.0625 14.203125 -11.8125 C 14.453125 -11.5625 14.578125 -11.15625 14.578125 -10.59375 L 14.578125 -1.59375 C 14.578125 -1.03125 14.453125 -0.625 14.203125 -0.375 C 13.953125 -0.125 13.546875 0 12.984375 0 Z M 12.984375 0 "/></g></g></g></svg>